<?xml version="1.0" standalone="no"?>
<!DOCTYPE svg PUBLIC "-//W3C//DTD SVG 20010904//EN"
 "http://www.w3.org/TR/2001/REC-SVG-20010904/DTD/svg10.dtd">
<svg version="1.0" xmlns="http://www.w3.org/2000/svg"
 width="700.000000pt" height="700.000000pt" viewBox="0 0 700.000000 700.000000"
 preserveAspectRatio="xMidYMid meet">
<metadata>
Created by potrace 1.11, written by Peter Selinger 2001-2013
</metadata>
<g transform="translate(0.000000,700.000000) scale(0.100000,-0.100000)"
fill="#000000" stroke="none">
<path d="M3365 5950 c-191 -76 -331 -368 -253 -529 21 -43 124 -156 196 -214
l32 -26 50 -458 50 -458 0 -621 c0 -684 0 -690 61 -759 23 -26 39 -35 63 -35
40 0 91 37 128 92 36 54 36 91 -2 440 -55 514 -55 512 -55 1003 0 459 9 650
37 765 15 62 49 126 122 233 35 51 68 106 73 123 15 42 1 120 -34 191 -38 78
-159 201 -235 238 -77 37 -164 43 -233 15z"/>
<path d="M4540 5726 c-166 -31 -258 -121 -290 -283 -21 -103 -10 -162 54 -312
53 -121 58 -138 52 -182 -4 -26 -45 -189 -92 -361 -95 -350 -140 -533 -254
-1048 -43 -195 -90 -402 -104 -460 -14 -58 -26 -117 -26 -132 0 -39 19 -74 47
-87 40 -18 132 -13 179 9 69 34 77 60 81 299 4 199 5 209 43 355 21 83 90 315
153 516 63 201 143 464 177 585 36 127 69 225 78 233 9 6 28 12 44 12 46 0
133 39 180 79 88 78 148 258 148 447 0 205 -78 305 -260 334 -80 12 -126 12
-210 -4z"/>
<path d="M2210 5721 c-131 -27 -253 -171 -295 -346 -17 -70 -19 -224 -5 -277
19 -68 49 -91 207 -158 150 -63 204 -95 223 -131 6 -11 17 -55 25 -99 15 -87
17 -92 82 -192 109 -169 151 -323 303 -1123 45 -231 88 -438 96 -460 32 -83
98 -122 179 -106 92 17 114 53 96 156 -24 138 -201 826 -452 1759 -127 473
-123 428 -48 557 50 86 54 107 35 172 -20 70 -87 146 -169 191 -90 50 -201 73
-277 57z"/>
<path d="M5401 4950 c-193 -27 -300 -109 -287 -220 3 -25 23 -87 46 -139 22
-52 43 -113 46 -136 7 -48 2 -58 -135 -302 -114 -204 -147 -270 -211 -428 -94
-231 -138 -375 -193 -630 -19 -90 -21 -117 -12 -144 15 -47 52 -81 85 -81 69
0 148 150 355 670 187 471 280 649 353 679 26 11 42 9 106 -8 104 -29 169 -27
234 5 62 31 106 79 140 153 23 49 26 70 26 166 1 105 -1 113 -32 177 -41 83
-130 174 -209 213 -49 24 -72 29 -153 31 -52 1 -124 -1 -159 -6z"/>
<path d="M1350 4776 c-217 -61 -346 -255 -311 -470 24 -144 143 -319 236 -345
38 -10 114 0 215 29 59 17 77 12 121 -32 72 -75 356 -454 392 -524 9 -17 34
-105 57 -195 79 -318 112 -384 202 -412 32 -11 87 13 103 43 37 71 4 260 -79
457 -61 145 -190 374 -385 688 -89 143 -183 303 -209 355 l-47 95 0 122 c0
121 0 122 -29 152 -17 17 -46 36 -65 41 -48 13 -146 11 -201 -4z"/>
<path d="M5060 2684 c-8 -2 -164 -24 -346 -49 -314 -43 -342 -45 -565 -45
-326 1 -912 16 -1374 37 -689 32 -813 24 -870 -52 -36 -46 -55 -115 -55 -195
0 -119 38 -186 129 -229 l56 -26 395 1 c217 1 607 7 865 13 281 7 669 9 965 5
457 -6 699 1 753 21 50 20 137 285 137 420 0 46 -4 60 -25 80 -23 24 -33 27
-65 19z"/>
<path d="M3482 1755 c-125 -27 -250 -101 -359 -211 -57 -57 -75 -83 -89 -126
-41 -131 31 -251 195 -324 147 -66 401 -90 556 -53 208 50 375 218 375 376 0
157 -218 313 -477 343 -108 12 -122 12 -201 -5z"/>
</g>
</svg>
